<svg xmlns="http://www.w3.org/2000/svg" xmlns:xlink="http://www.w3.org/1999/xlink" xmlns:inkscape="http://www.inkscape.org/namespaces/inkscape" version="1.1" width="2264.00" height="1360.00" viewBox="181.00 164.00 2264.00 1360.00">
<defs>
<clipPath id="clip_1">
<path transform="matrix(1,0,0,-1,0,1625.47)" d="M0 1625.465H2831.579V0H0Z"/>
</clipPath>
</defs>
<g inkscape:groupmode="layer" inkscape:label="Laag 1">
<path transform="matrix(1,0,0,-1,0,1625.47)" d="M2415.79 454.326H210.14209V1432.588H2415.79Z" fill="#f3efe7"/>
<path transform="matrix(1,0,0,-1,0,1625.47)" stroke-width="4.915" stroke-linecap="butt" stroke-miterlimit="10" stroke-linejoin="miter" fill="none" stroke="#231f20" d="M2415.79 454.326H210.14209V1432.588H2415.79Z"/>
<path transform="matrix(1,0,0,-1,369.8703,333.99085)" d="M0 0H45.122V-132.871H217.619V0H262.741V-319.975H217.619V-173.546H45.122V-319.975H0Z" fill="#231f20"/>
<path transform="matrix(1,0,0,-1,369.8703,333.99085)" stroke-width="4.915" stroke-linecap="butt" stroke-miterlimit="10" stroke-linejoin="miter" fill="none" stroke="#231f20" d="M0 0H45.122V-132.871H217.619V0H262.741V-319.975H217.619V-173.546H45.122V-319.975H0V0Z"/>
<path transform="matrix(1,0,0,-1,916.9714,536.9127)" d="M0 0-62.042 146.881H-62.983L-125.965 0ZM-80.843 202.922H-39.952L102.464-117.053H49.822L16.451-37.963H-141.946L-174.847-117.053H-227.489Z" fill="#231f20"/>
<path transform="matrix(1,0,0,-1,916.9714,536.9127)" stroke-width="4.915" stroke-linecap="butt" stroke-miterlimit="10" stroke-linejoin="miter" fill="none" stroke="#231f20" d="M0 0-62.042 146.881H-62.983L-125.965 0H0ZM-80.843 202.922H-39.952L102.464-117.053H49.822L16.451-37.963H-141.946L-174.847-117.053H-227.489L-80.843 202.922Z"/>
<g clip-path="url(#clip_1)">
<path transform="matrix(1,0,0,-1,1121.4274,616.00247)" d="M0 0H66.273C73.162 0 80.763 .678 89.069 2.034 97.368 3.39 105.123 6.102 112.334 10.169 119.539 14.236 125.649 19.73 130.666 26.665 135.674 33.592 138.186 42.779 138.186 54.233 138.186 73.215 131.76 87.451 118.915 96.941 106.063 106.433 88.672 111.178 66.743 111.178H0ZM0 149.141H61.573C70.033 149.141 78.023 149.967 85.543 151.627 93.064 153.279 99.644 156.068 105.284 159.987 110.925 163.899 115.39 168.871 118.68 174.901 121.97 180.925 123.615 188.305 123.615 197.047 123.615 209.701 119.385 220.696 110.925 230.038 102.464 239.374 89.142 244.049 70.973 244.049H0ZM-45.122 282.012H70.503C84.912 282.012 98.308 280.352 110.689 277.04 123.064 273.722 133.721 268.828 142.651 262.352 151.581 255.87 158.631 247.587 163.802 237.495 168.972 227.397 171.557 215.576 171.557 202.018 171.557 183.637 166.225 168.645 155.577 157.05 144.92 145.447 131.135 136.938 114.215 131.516V130.611C124.239 130.004 133.64 127.518 142.416 123.154 151.185 118.783 158.786 113.057 165.212 105.98 171.63 98.897 176.728 90.685 180.487 81.35 184.248 72.007 186.128 61.916 186.128 51.069 186.128 36.607 183.073 23.875 176.962 12.881 170.852 1.879 162.465-7.386 151.816-14.914 141.16-22.448 128.785-28.176 114.685-32.088 100.584-36.007 85.382-37.963 69.093-37.963H-45.122Z" fill="#231f20"/>
<path transform="matrix(1,0,0,-1,1121.4274,616.00247)" stroke-width="4.915" stroke-linecap="butt" stroke-miterlimit="10" stroke-linejoin="miter" fill="none" stroke="#231f20" d="M0 0H66.273C73.162 0 80.763 .678 89.069 2.034 97.368 3.39 105.123 6.102 112.334 10.169 119.539 14.236 125.649 19.73 130.666 26.665 135.674 33.592 138.186 42.779 138.186 54.233 138.186 73.215 131.76 87.451 118.915 96.941 106.063 106.433 88.672 111.178 66.743 111.178H0V0ZM0 149.141H61.573C70.033 149.141 78.023 149.967 85.543 151.627 93.064 153.279 99.644 156.068 105.284 159.987 110.925 163.899 115.39 168.871 118.68 174.901 121.97 180.925 123.615 188.305 123.615 197.047 123.615 209.701 119.385 220.696 110.925 230.038 102.464 239.374 89.142 244.049 70.973 244.049H0V149.141ZM-45.122 282.012H70.503C84.912 282.012 98.308 280.352 110.689 277.04 123.064 273.722 133.721 268.828 142.651 262.352 151.581 255.87 158.631 247.587 163.802 237.495 168.972 227.397 171.557 215.576 171.557 202.018 171.557 183.637 166.225 168.645 155.577 157.05 144.92 145.447 131.135 136.938 114.215 131.516V130.611C124.239 130.004 133.64 127.518 142.416 123.154 151.185 118.783 158.786 113.057 165.212 105.98 171.63 98.897 176.728 90.685 180.487 81.35 184.248 72.007 186.128 61.916 186.128 51.069 186.128 36.607 183.073 23.875 176.962 12.881 170.852 1.879 162.465-7.386 151.816-14.914 141.16-22.448 128.785-28.176 114.685-32.088 100.584-36.007 85.382-37.963 69.093-37.963H-45.122V282.012Z"/>
<path transform="matrix(1,0,0,-1,0,1625.47)" d="M1386.043 1291.479H1431.1649V971.504H1386.043Z" fill="#231f20"/>
<path transform="matrix(1,0,0,-1,0,1625.47)" stroke-width="4.915" stroke-linecap="butt" stroke-miterlimit="10" stroke-linejoin="miter" fill="none" stroke="#231f20" d="M1386.043 1291.479H1431.1649V971.504H1386.043Z"/>
<path transform="matrix(1,0,0,-1,1599.902,374.66566)" d="M0 0H-107.165V40.675H152.286V0H45.121V-279.3H0Z" fill="#231f20"/>
<path transform="matrix(1,0,0,-1,1599.902,374.66566)" stroke-width="4.915" stroke-linecap="butt" stroke-miterlimit="10" stroke-linejoin="miter" fill="none" stroke="#231f20" d="M0 0H-107.165V40.675H152.286V0H45.121V-279.3H0V0Z"/>
<path transform="matrix(1,0,0,-1,1955.7037,536.9127)" d="M0 0-62.042 146.881H-62.982L-125.965 0ZM-80.843 202.922H-39.951L102.465-117.053H49.822L16.451-37.963H-141.945L-174.847-117.053H-227.489Z" fill="#231f20"/>
<path transform="matrix(1,0,0,-1,1955.7037,536.9127)" stroke-width="4.915" stroke-linecap="butt" stroke-miterlimit="10" stroke-linejoin="miter" fill="none" stroke="#231f20" d="M0 0-62.042 146.881H-62.982L-125.965 0H0ZM-80.843 202.922H-39.951L102.465-117.053H49.822L16.451-37.963H-141.945L-174.847-117.053H-227.489L-80.843 202.922Z"/>
<path transform="matrix(1,0,0,-1,2141.362,374.66566)" d="M0 0H-107.165V40.675H152.286V0H45.121V-279.3H0Z" fill="#231f20"/>
<path transform="matrix(1,0,0,-1,2141.362,374.66566)" stroke-width="4.915" stroke-linecap="butt" stroke-miterlimit="10" stroke-linejoin="miter" fill="none" stroke="#231f20" d="M0 0H-107.165V40.675H152.286V0H45.121V-279.3H0V0Z"/>
<path transform="matrix(1,0,0,-1,991.2346,1039.228)" d="M0 0C19.109 0 36.346 3.39 51.702 10.168 67.051 16.947 80.212 26.057 91.184 37.511 102.148 48.958 110.609 62.438 116.565 77.96 122.514 93.474 125.496 109.97 125.496 127.447 125.496 144.918 122.514 161.413 116.565 176.935 110.609 192.449 102.148 205.93 91.184 217.384 80.212 228.83 67.051 237.947 51.702 244.727 36.346 251.505 19.109 254.895 0 254.895-19.116 254.895-36.353 251.505-51.702 244.727-67.058 237.947-80.219 228.83-91.184 217.384-102.156 205.93-110.616 192.449-116.564 176.935-122.521 161.413-125.495 144.918-125.495 127.447-125.495 109.97-122.521 93.474-116.564 77.96-110.616 62.438-102.156 48.958-91.184 37.511-80.219 26.057-67.058 16.947-51.702 10.168-36.353 3.39-19.116 0 0 0M0-40.675C-25.381-40.675-48.728-36.382-70.033-27.795-91.345-19.208-109.595-7.387-124.79 7.683-139.992 22.745-151.897 40.52-160.511 61.012-169.133 81.497-173.437 103.643-173.437 127.447-173.437 151.245-169.133 173.39-160.511 193.883-151.897 214.368-139.992 232.143-124.79 247.212-109.595 262.274-91.345 274.103-70.033 282.689-48.728 291.276-25.381 295.569 0 295.569 25.381 295.569 48.721 291.276 70.033 282.689 91.338 274.103 109.588 262.274 124.79 247.212 139.985 232.143 151.89 214.368 160.512 193.883 169.126 173.39 173.437 151.245 173.437 127.447 173.437 103.643 169.126 81.497 160.512 61.012 151.89 40.52 139.985 22.745 124.79 7.683 109.588-7.387 91.338-19.208 70.033-27.795 48.721-36.382 25.381-40.675 0-40.675" fill="#231f20"/>
<path transform="matrix(1,0,0,-1,991.2346,1039.228)" stroke-width="4.915" stroke-linecap="butt" stroke-miterlimit="10" stroke-linejoin="miter" fill="none" stroke="#231f20" d="M0 0C19.109 0 36.346 3.39 51.702 10.168 67.051 16.947 80.212 26.057 91.184 37.511 102.148 48.958 110.609 62.438 116.565 77.96 122.514 93.474 125.496 109.97 125.496 127.447 125.496 144.918 122.514 161.413 116.565 176.935 110.609 192.449 102.148 205.93 91.184 217.384 80.212 228.83 67.051 237.947 51.702 244.727 36.346 251.505 19.109 254.895 0 254.895-19.116 254.895-36.353 251.505-51.702 244.727-67.058 237.947-80.219 228.83-91.184 217.384-102.156 205.93-110.616 192.449-116.564 176.935-122.521 161.413-125.495 144.918-125.495 127.447-125.495 109.97-122.521 93.474-116.564 77.96-110.616 62.438-102.156 48.958-91.184 37.511-80.219 26.057-67.058 16.947-51.702 10.168-36.353 3.39-19.116 0 0 0ZM0-40.675C-25.381-40.675-48.728-36.382-70.033-27.795-91.345-19.208-109.595-7.387-124.79 7.683-139.992 22.745-151.897 40.52-160.511 61.012-169.133 81.497-173.437 103.643-173.437 127.447-173.437 151.245-169.133 173.39-160.511 193.883-151.897 214.368-139.992 232.143-124.79 247.212-109.595 262.274-91.345 274.103-70.033 282.689-48.728 291.276-25.381 295.569 0 295.569 25.381 295.569 48.721 291.276 70.033 282.689 91.338 274.103 109.588 262.274 124.79 247.212 139.985 232.143 151.89 214.368 160.512 193.883 169.126 173.39 173.437 151.245 173.437 127.447 173.437 103.643 169.126 81.497 160.512 61.012 151.89 40.52 139.985 22.745 124.79 7.683 109.588-7.387 91.338-19.208 70.033-27.795 48.721-36.382 25.381-40.675 0-40.675Z"/>
<path transform="matrix(1,0,0,-1,1220.5978,751.79348)" d="M0 0H59.222L242.53-263.03H243.47V0H288.591V-319.975H231.25L46.062-56.944H45.122V-319.975H0Z" fill="#231f20"/>
<path transform="matrix(1,0,0,-1,1220.5978,751.79348)" stroke-width="4.915" stroke-linecap="butt" stroke-miterlimit="10" stroke-linejoin="miter" fill="none" stroke="#231f20" d="M0 0H59.222L242.53-263.03H243.47V0H288.591V-319.975H231.25L46.062-56.944H45.122V-319.975H0V0Z"/>
<path transform="matrix(1,0,0,-1,1585.7975,751.79348)" d="M0 0H214.799V-40.675H45.122V-136.034H203.049V-176.709H45.122V-279.3H223.26V-319.975H0Z" fill="#231f20"/>
<path transform="matrix(1,0,0,-1,1585.7975,751.79348)" stroke-width="4.915" stroke-linecap="butt" stroke-miterlimit="10" stroke-linejoin="miter" fill="none" stroke="#231f20" d="M0 0H214.799V-40.675H45.122V-136.034H203.049V-176.709H45.122V-279.3H223.26V-319.975H0V0Z"/>
<path transform="matrix(1,0,0,-1,891.5173,1269.6909)" d="M0 0H31.4V-159.141C31.4-173.19 29.111-184.67 24.532-193.579 19.952-202.493 14.229-209.516 7.359-214.651 .491-219.791-6.869-223.349-14.719-225.344-22.569-227.334-29.765-228.332-36.307-228.332-52.661-228.332-66.455-224.293-77.683-216.224-88.917-208.154-96.056-195.937-99.107-179.583L-68.361-172.979C-66.619-181.367-63.021-187.972-57.567-192.793-52.119-197.618-45.031-200.026-36.307-200.026-28.457-200.026-22.191-198.562-17.499-195.623-12.813-192.689-9.159-188.861-6.542-184.144-3.925-179.426-2.182-174.03-1.308-167.946-.439-161.868 0-155.681 0-149.391Z" fill="#f3efe7"/>
<path transform="matrix(1,0,0,-1,1115.2433,1410.9049)" d="M0 0-43.175 102.215H-43.83L-87.659 0ZM-56.259 141.214H-27.802L71.305-81.457H34.671L11.448-26.418H-98.78L-121.676-81.457H-158.31Z" fill="#f3efe7"/>
<path transform="matrix(1,0,0,-1,1179.3541,1269.6909)" d="M0 0H36.307L104.341-181.156H104.995L175.646 0H209.99L118.732-222.671H89.295Z" fill="#f3efe7"/>
<path transform="matrix(1,0,0,-1,1426.6286,1269.6909)" d="M0 0H149.479V-28.306H31.4V-94.667H141.303V-122.972H31.4V-194.365H155.367V-222.671H0Z" fill="#f3efe7"/>
<path transform="matrix(1,0,0,-1,1764.8336,1410.9049)" d="M0 0-43.175 102.215H-43.829L-87.658 0ZM-56.258 141.214H-27.802L71.306-81.457H34.672L11.449-26.418H-98.779L-121.676-81.457H-158.31Z" fill="#f3efe7"/>
</g>
</g>
</svg>
