<svg viewBox="0 0 1421.45 255.76" xmlns="http://www.w3.org/2000/svg" data-name="Layer 1" id="Layer_1">
  <defs>
    <style>
      .cls-1 {
        fill: #231f20;
      }
    </style>
  </defs>
  <path d="M180.14,107.56l-18.05,11.48c-15.59-21.19-36.9-31.78-63.87-31.78-21.55,0-39.49,7.09-53.73,21.28-14.25,14.19-21.37,31.42-21.37,51.72,0,13.18,3.29,25.6,9.83,37.23s15.56,20.67,26.97,27.13c11.42,6.42,24.23,9.65,38.45,9.65,26,0,47.25-10.59,63.72-31.78l18.05,12.15c-8.46,13.03-19.85,23.17-34.1,30.35-14.28,7.18-30.5,10.78-48.74,10.78-27.98,0-51.21-9.1-69.66-27.31S0,188.11,0,162.02c0-17.54,4.32-33.82,12.94-48.86,8.62-15.04,20.49-26.76,35.56-35.19s31.94-12.66,50.6-12.66c11.72,0,23.02,1.83,33.91,5.51,10.9,3.65,20.15,8.43,27.73,14.31,7.61,5.88,14.07,13.36,19.36,22.47" class="cls-1"></path>
  <path d="M304.59,87.74c-12.66,0-24.39,3.2-35.1,9.56-10.72,6.39-19.27,15.34-25.6,26.85-6.33,11.54-9.5,23.72-9.5,36.56s3.2,24.96,9.59,36.59c6.39,11.63,14.98,20.7,25.76,27.19,10.78,6.48,22.35,9.74,34.71,9.74s24.26-3.23,35.44-9.65c11.14-6.42,19.76-15.13,25.76-26.12,6.03-10.99,9.01-23.32,9.01-37.08,0-20.95-6.76-38.45-20.25-52.55-13.49-14.07-30.11-21.13-49.81-21.13M395.62,69.93v181.11h-22.47v-31.11c-9.56,11.87-20.25,20.79-32.15,26.79-11.87,6-24.87,8.98-38.97,8.98-25.06,0-46.46-9.29-64.21-27.89-17.75-18.57-26.61-41.19-26.61-67.83s8.95-48.38,26.85-66.92,39.42-27.8,64.6-27.8c14.52,0,27.67,3.17,39.46,9.5,11.78,6.33,22.1,15.8,30.99,28.47v-33.31h22.5Z" class="cls-1"></path>
  <path d="M433.61,69.93h23.26v26.46c6.94-10.44,14.25-18.24,21.98-23.38,7.7-5.15,15.74-7.73,24.08-7.73,6.3,0,13,2.04,20.18,6.15l-11.87,19.64c-4.78-2.1-8.77-3.17-12.06-3.17-7.58,0-14.92,3.2-21.95,9.56-7.06,6.39-12.42,16.29-16.1,29.71-2.83,10.32-4.23,31.17-4.23,62.59v61.25h-23.26V69.9l-.03.03Z" class="cls-1"></path>
  <path d="M623.16,87.74c-12.66,0-24.39,3.2-35.1,9.56-10.75,6.39-19.27,15.34-25.6,26.85-6.33,11.54-9.5,23.72-9.5,36.56s3.2,24.96,9.59,36.59c6.39,11.63,14.98,20.7,25.76,27.19,10.78,6.48,22.35,9.74,34.71,9.74s24.26-3.23,35.44-9.65c11.14-6.42,19.73-15.13,25.76-26.12,6.03-10.99,9.04-23.32,9.04-37.08,0-20.95-6.76-38.45-20.25-52.55-13.49-14.07-30.11-21.13-49.81-21.13M714.21,69.93v181.11h-22.47v-31.11c-9.56,11.87-20.28,20.79-32.15,26.79s-24.87,8.98-38.97,8.98c-25.06,0-46.46-9.29-64.21-27.89-17.75-18.57-26.61-41.19-26.61-67.83s8.95-48.38,26.85-66.92c17.9-18.54,39.42-27.8,64.6-27.8,14.52,0,27.67,3.17,39.46,9.5,11.75,6.33,22.1,15.8,30.99,28.47v-33.31h22.5Z" class="cls-1"></path>
  <path d="M932.62,107.56l-18.05,11.48c-15.62-21.19-36.9-31.78-63.87-31.78-21.55,0-39.49,7.09-53.73,21.28s-21.37,31.42-21.37,51.72c0,13.18,3.29,25.6,9.83,37.23,6.55,11.63,15.56,20.67,26.97,27.13,11.45,6.42,24.23,9.65,38.45,9.65,26,0,47.25-10.59,63.72-31.78l18.05,12.15c-8.46,13.03-19.82,23.17-34.1,30.35-14.28,7.18-30.5,10.78-48.74,10.78-27.98,0-51.21-9.1-69.66-27.31-18.42-18.21-27.67-40.34-27.67-66.43,0-17.54,4.32-33.82,12.94-48.86s20.49-26.76,35.56-35.19c15.07-8.43,31.94-12.66,50.6-12.66,11.72,0,23.02,1.83,33.94,5.51,10.9,3.65,20.15,8.43,27.73,14.31,7.61,5.88,14.07,13.36,19.36,22.47" class="cls-1"></path>
  <rect height="251.04" width="22.77" x="1181.89" class="cls-1"></rect>
  <path d="M1396.4,142.17c-3.04-12.42-7.46-22.38-13.3-29.8-5.81-7.43-13.49-13.43-23.05-17.96s-19.61-6.82-30.14-6.82c-17.38,0-32.33,5.72-44.81,17.14-9.13,8.31-16.01,20.79-20.7,37.45h132ZM1396.4,190.94l19.18,10.32c-6.3,12.66-13.58,22.86-21.83,30.63-8.25,7.76-17.54,13.7-27.86,17.72-10.32,4.05-21.98,6.09-35.01,6.09-28.89,0-51.48-9.68-67.77-29.04-16.29-19.36-24.42-41.25-24.42-65.67,0-22.99,6.88-43.44,20.7-61.44,17.47-22.86,40.89-34.28,70.17-34.28s54.31,11.72,72.33,35.13c12.82,16.53,19.3,37.17,19.54,61.92h-159.31c.43,21.04,7,38.3,19.7,51.72,12.7,13.46,28.4,20.18,47.1,20.18,9.01,0,17.78-1.58,26.3-4.81,8.52-3.2,15.77-7.46,21.74-12.76,6-5.3,12.45-13.88,19.39-25.69" class="cls-1"></path>
  <path d="M1054.73,66.37c27.73,0,50.75,10.05,68.99,30.11,16.56,18.33,24.87,40,24.87,65.06s-8.77,47.16-26.27,65.97c-17.54,18.81-40.03,28.22-67.55,28.22s-50.2-9.41-67.74-28.22c-17.54-18.81-26.27-40.79-26.27-65.97s8.28-46.58,24.87-64.88c18.24-20.18,41.28-30.29,69.14-30.29h-.03ZM1054.64,89.05c-19.27,0-35.83,7.12-49.65,21.34-13.85,14.25-20.76,31.45-20.76,51.63,0,13.03,3.17,25.15,9.47,36.41,6.3,11.26,14.83,19.94,25.57,26.06,10.75,6.12,22.53,9.19,35.38,9.19s24.63-3.07,35.38-9.19c10.75-6.12,19.27-14.83,25.57-26.06,6.3-11.26,9.47-23.38,9.47-36.41,0-20.18-6.94-37.42-20.85-51.63-13.88-14.25-30.41-21.34-49.59-21.34h.03Z" class="cls-1"></path>
</svg>